<mxfile host="Electron" agent="Mozilla/5.0 (Windows NT 10.0; Win64; x64) AppleWebKit/537.36 (KHTML, like Gecko) draw.io/22.0.2 Chrome/114.0.5735.289 Electron/25.8.4 Safari/537.36" modified="2025-02-12T13:02:44.977Z" version="22.0.2" etag="nRO6V9Gzon7Ul0M7xq7h" type="device">
  <diagram name="Страница — 1" id="c3Ib06PqW2cd4hRViBK4">
    <mxGraphModel dx="1668" dy="965" grid="1" gridSize="10" guides="1" tooltips="1" connect="1" arrows="1" fold="1" page="1" pageScale="1" pageWidth="827" pageHeight="1169" math="0" shadow="0">
      <root>
        <mxCell id="0" />
        <mxCell id="1" parent="0" />
        <mxCell id="t9oWjJF-gBKutY8o14O9-1" value="" style="rounded=0;whiteSpace=wrap;html=1;" parent="1" vertex="1">
          <mxGeometry x="296" y="40" width="1094" height="1290" as="geometry" />
        </mxCell>
        <mxCell id="t9oWjJF-gBKutY8o14O9-18" style="rounded=0;orthogonalLoop=1;jettySize=auto;html=1;exitX=0.75;exitY=0.1;exitDx=0;exitDy=0;exitPerimeter=0;" parent="1" source="t9oWjJF-gBKutY8o14O9-2" target="t9oWjJF-gBKutY8o14O9-16" edge="1">
          <mxGeometry relative="1" as="geometry" />
        </mxCell>
        <mxCell id="t9oWjJF-gBKutY8o14O9-2" value="Вахтёр" style="shape=umlActor;verticalLabelPosition=bottom;verticalAlign=top;html=1;outlineConnect=0;" parent="1" vertex="1">
          <mxGeometry x="180" y="280" width="30" height="60" as="geometry" />
        </mxCell>
        <mxCell id="t9oWjJF-gBKutY8o14O9-12" style="rounded=0;orthogonalLoop=1;jettySize=auto;html=1;exitX=0.25;exitY=0.1;exitDx=0;exitDy=0;exitPerimeter=0;" parent="1" source="t9oWjJF-gBKutY8o14O9-3" target="t9oWjJF-gBKutY8o14O9-10" edge="1">
          <mxGeometry relative="1" as="geometry" />
        </mxCell>
        <mxCell id="t9oWjJF-gBKutY8o14O9-13" style="rounded=0;orthogonalLoop=1;jettySize=auto;html=1;exitX=0.25;exitY=0.1;exitDx=0;exitDy=0;exitPerimeter=0;" parent="1" source="t9oWjJF-gBKutY8o14O9-3" target="t9oWjJF-gBKutY8o14O9-11" edge="1">
          <mxGeometry relative="1" as="geometry" />
        </mxCell>
        <mxCell id="t9oWjJF-gBKutY8o14O9-15" style="rounded=0;orthogonalLoop=1;jettySize=auto;html=1;exitX=0.25;exitY=0.1;exitDx=0;exitDy=0;exitPerimeter=0;" parent="1" source="t9oWjJF-gBKutY8o14O9-3" target="t9oWjJF-gBKutY8o14O9-25" edge="1">
          <mxGeometry relative="1" as="geometry">
            <mxPoint x="1070.9921095231184" y="486.0858878783481" as="targetPoint" />
          </mxGeometry>
        </mxCell>
        <mxCell id="t9oWjJF-gBKutY8o14O9-3" value="Администратор" style="shape=umlActor;verticalLabelPosition=bottom;verticalAlign=top;html=1;outlineConnect=0;" parent="1" vertex="1">
          <mxGeometry x="1420" y="700" width="30" height="60" as="geometry" />
        </mxCell>
        <mxCell id="t9oWjJF-gBKutY8o14O9-9" value="Редактировать запись в журнале о передвижении ключей" style="ellipse;whiteSpace=wrap;html=1;" parent="1" vertex="1">
          <mxGeometry x="607" y="270" width="170" height="70" as="geometry" />
        </mxCell>
        <mxCell id="t9oWjJF-gBKutY8o14O9-10" value="Работа с сотрудниками ВлГУ" style="ellipse;whiteSpace=wrap;html=1;" parent="1" vertex="1">
          <mxGeometry x="640" y="620" width="160" height="60" as="geometry" />
        </mxCell>
        <mxCell id="t9oWjJF-gBKutY8o14O9-11" value="Работа с ключами от аудиторий ВлГУ" style="ellipse;whiteSpace=wrap;html=1;" parent="1" vertex="1">
          <mxGeometry x="860" y="790" width="170" height="50" as="geometry" />
        </mxCell>
        <mxCell id="t9oWjJF-gBKutY8o14O9-16" value="Работа с журналом о передвижении ключей" style="ellipse;whiteSpace=wrap;html=1;" parent="1" vertex="1">
          <mxGeometry x="350" y="250" width="166" height="60" as="geometry" />
        </mxCell>
        <mxCell id="t9oWjJF-gBKutY8o14O9-20" value="Добавить запись в журнал о передвижении ключей" style="ellipse;whiteSpace=wrap;html=1;" parent="1" vertex="1">
          <mxGeometry x="430" y="130" width="190" height="70" as="geometry" />
        </mxCell>
        <mxCell id="t9oWjJF-gBKutY8o14O9-21" value="include" style="endArrow=open;endSize=12;dashed=1;html=1;rounded=0;" parent="1" source="t9oWjJF-gBKutY8o14O9-16" target="t9oWjJF-gBKutY8o14O9-20" edge="1">
          <mxGeometry x="-0.0096" width="160" relative="1" as="geometry">
            <mxPoint x="551" y="343" as="sourcePoint" />
            <mxPoint x="640" y="440" as="targetPoint" />
            <mxPoint as="offset" />
          </mxGeometry>
        </mxCell>
        <mxCell id="t9oWjJF-gBKutY8o14O9-22" value="include" style="endArrow=open;endSize=12;dashed=1;html=1;rounded=0;" parent="1" source="t9oWjJF-gBKutY8o14O9-16" target="t9oWjJF-gBKutY8o14O9-9" edge="1">
          <mxGeometry x="-0.0096" width="160" relative="1" as="geometry">
            <mxPoint x="680" y="391" as="sourcePoint" />
            <mxPoint x="736" y="328" as="targetPoint" />
            <mxPoint as="offset" />
          </mxGeometry>
        </mxCell>
        <mxCell id="t9oWjJF-gBKutY8o14O9-23" value="Удалить запись в журнале о передвижении ключей" style="ellipse;whiteSpace=wrap;html=1;" parent="1" vertex="1">
          <mxGeometry x="637" y="170" width="190" height="70" as="geometry" />
        </mxCell>
        <mxCell id="t9oWjJF-gBKutY8o14O9-24" value="include" style="endArrow=open;endSize=12;dashed=1;html=1;rounded=0;" parent="1" source="t9oWjJF-gBKutY8o14O9-16" target="t9oWjJF-gBKutY8o14O9-23" edge="1">
          <mxGeometry x="-0.0096" width="160" relative="1" as="geometry">
            <mxPoint x="680" y="391" as="sourcePoint" />
            <mxPoint x="736" y="328" as="targetPoint" />
            <mxPoint as="offset" />
          </mxGeometry>
        </mxCell>
        <mxCell id="t9oWjJF-gBKutY8o14O9-25" value="Работа с институтами ВлГУ" style="ellipse;whiteSpace=wrap;html=1;" parent="1" vertex="1">
          <mxGeometry x="1146" y="290" width="166" height="60" as="geometry" />
        </mxCell>
        <mxCell id="t9oWjJF-gBKutY8o14O9-26" value="Редактировать информацию о ключах" style="ellipse;whiteSpace=wrap;html=1;" parent="1" vertex="1">
          <mxGeometry x="570" y="930" width="190" height="65" as="geometry" />
        </mxCell>
        <mxCell id="t9oWjJF-gBKutY8o14O9-27" value="Добавить информацию&amp;nbsp;о ключах" style="ellipse;whiteSpace=wrap;html=1;" parent="1" vertex="1">
          <mxGeometry x="550" y="770" width="200" height="55" as="geometry" />
        </mxCell>
        <mxCell id="t9oWjJF-gBKutY8o14O9-28" value="include" style="endArrow=open;endSize=12;dashed=1;html=1;rounded=0;" parent="1" source="t9oWjJF-gBKutY8o14O9-11" target="t9oWjJF-gBKutY8o14O9-27" edge="1">
          <mxGeometry x="-0.0096" width="160" relative="1" as="geometry">
            <mxPoint x="634" y="466" as="sourcePoint" />
            <mxPoint x="620" y="675" as="targetPoint" />
            <mxPoint as="offset" />
          </mxGeometry>
        </mxCell>
        <mxCell id="t9oWjJF-gBKutY8o14O9-29" value="include" style="endArrow=open;endSize=12;dashed=1;html=1;rounded=0;" parent="1" source="t9oWjJF-gBKutY8o14O9-11" target="t9oWjJF-gBKutY8o14O9-26" edge="1">
          <mxGeometry x="-0.0096" width="160" relative="1" as="geometry">
            <mxPoint x="681" y="513" as="sourcePoint" />
            <mxPoint x="716" y="563" as="targetPoint" />
            <mxPoint as="offset" />
          </mxGeometry>
        </mxCell>
        <mxCell id="t9oWjJF-gBKutY8o14O9-30" value="Удалить информацию&amp;nbsp;о ключах" style="ellipse;whiteSpace=wrap;html=1;" parent="1" vertex="1">
          <mxGeometry x="490" y="860" width="190" height="50" as="geometry" />
        </mxCell>
        <mxCell id="t9oWjJF-gBKutY8o14O9-31" value="include" style="endArrow=open;endSize=12;dashed=1;html=1;rounded=0;" parent="1" source="t9oWjJF-gBKutY8o14O9-11" target="t9oWjJF-gBKutY8o14O9-30" edge="1">
          <mxGeometry x="-0.0096" width="160" relative="1" as="geometry">
            <mxPoint x="688" y="481" as="sourcePoint" />
            <mxPoint x="716" y="563" as="targetPoint" />
            <mxPoint as="offset" />
          </mxGeometry>
        </mxCell>
        <mxCell id="t9oWjJF-gBKutY8o14O9-32" value="Редактировать информацию о сотрудниках ВлГУ" style="ellipse;whiteSpace=wrap;html=1;" parent="1" vertex="1">
          <mxGeometry x="360" y="705" width="190" height="65" as="geometry" />
        </mxCell>
        <mxCell id="t9oWjJF-gBKutY8o14O9-33" value="Добавить информацию&amp;nbsp;о сотрудниках ВлГУ" style="ellipse;whiteSpace=wrap;html=1;" parent="1" vertex="1">
          <mxGeometry x="360" y="540" width="200" height="55" as="geometry" />
        </mxCell>
        <mxCell id="t9oWjJF-gBKutY8o14O9-34" value="include" style="endArrow=open;endSize=12;dashed=1;html=1;rounded=0;" parent="1" source="t9oWjJF-gBKutY8o14O9-10" target="t9oWjJF-gBKutY8o14O9-33" edge="1">
          <mxGeometry x="-0.0096" width="160" relative="1" as="geometry">
            <mxPoint x="878" y="503" as="sourcePoint" />
            <mxPoint x="483" y="445" as="targetPoint" />
            <mxPoint as="offset" />
          </mxGeometry>
        </mxCell>
        <mxCell id="t9oWjJF-gBKutY8o14O9-35" value="include" style="endArrow=open;endSize=12;dashed=1;html=1;rounded=0;" parent="1" source="t9oWjJF-gBKutY8o14O9-10" target="t9oWjJF-gBKutY8o14O9-32" edge="1">
          <mxGeometry x="-0.0096" width="160" relative="1" as="geometry">
            <mxPoint x="853" y="542" as="sourcePoint" />
            <mxPoint x="579" y="333" as="targetPoint" />
            <mxPoint as="offset" />
          </mxGeometry>
        </mxCell>
        <mxCell id="t9oWjJF-gBKutY8o14O9-36" value="Удалить информацию&amp;nbsp;о сотрудниках ВлГУ" style="ellipse;whiteSpace=wrap;html=1;" parent="1" vertex="1">
          <mxGeometry x="360" y="630" width="190" height="50" as="geometry" />
        </mxCell>
        <mxCell id="t9oWjJF-gBKutY8o14O9-37" value="include" style="endArrow=open;endSize=12;dashed=1;html=1;rounded=0;" parent="1" source="t9oWjJF-gBKutY8o14O9-10" target="t9oWjJF-gBKutY8o14O9-36" edge="1">
          <mxGeometry x="-0.0096" width="160" relative="1" as="geometry">
            <mxPoint x="834" y="520" as="sourcePoint" />
            <mxPoint x="579" y="333" as="targetPoint" />
            <mxPoint as="offset" />
          </mxGeometry>
        </mxCell>
        <mxCell id="t9oWjJF-gBKutY8o14O9-40" value="Удалить информацию&amp;nbsp;о институтах ВлГУ" style="ellipse;whiteSpace=wrap;html=1;" parent="1" vertex="1">
          <mxGeometry x="950" y="150" width="170" height="70" as="geometry" />
        </mxCell>
        <mxCell id="t9oWjJF-gBKutY8o14O9-41" value="Редактировать информацию о институтах&amp;nbsp;ВлГУ" style="ellipse;whiteSpace=wrap;html=1;" parent="1" vertex="1">
          <mxGeometry x="880" y="240" width="190" height="70" as="geometry" />
        </mxCell>
        <mxCell id="t9oWjJF-gBKutY8o14O9-44" value="Добавить информацию&amp;nbsp;о институтах ВлГУ" style="ellipse;whiteSpace=wrap;html=1;" parent="1" vertex="1">
          <mxGeometry x="1146" y="120" width="190" height="70" as="geometry" />
        </mxCell>
        <mxCell id="t9oWjJF-gBKutY8o14O9-50" value="include" style="endArrow=none;endSize=12;dashed=1;html=1;rounded=0;startArrow=open;startFill=0;endFill=0;" parent="1" source="t9oWjJF-gBKutY8o14O9-41" target="t9oWjJF-gBKutY8o14O9-25" edge="1">
          <mxGeometry x="-0.0096" width="160" relative="1" as="geometry">
            <mxPoint x="1043" y="431" as="sourcePoint" />
            <mxPoint x="1139" y="413" as="targetPoint" />
            <mxPoint as="offset" />
          </mxGeometry>
        </mxCell>
        <mxCell id="t9oWjJF-gBKutY8o14O9-51" value="include" style="endArrow=none;endSize=12;dashed=1;html=1;rounded=0;startArrow=open;startFill=0;endFill=0;" parent="1" source="t9oWjJF-gBKutY8o14O9-40" target="t9oWjJF-gBKutY8o14O9-25" edge="1">
          <mxGeometry x="-0.0096" width="160" relative="1" as="geometry">
            <mxPoint x="1052" y="356" as="sourcePoint" />
            <mxPoint x="1147" y="382" as="targetPoint" />
            <mxPoint as="offset" />
          </mxGeometry>
        </mxCell>
        <mxCell id="t9oWjJF-gBKutY8o14O9-52" value="include" style="endArrow=none;endSize=12;dashed=1;html=1;rounded=0;startArrow=open;startFill=0;endFill=0;" parent="1" source="t9oWjJF-gBKutY8o14O9-44" target="t9oWjJF-gBKutY8o14O9-25" edge="1">
          <mxGeometry x="-0.0096" width="160" relative="1" as="geometry">
            <mxPoint x="1055" y="266" as="sourcePoint" />
            <mxPoint x="1180" y="372" as="targetPoint" />
            <mxPoint as="offset" />
          </mxGeometry>
        </mxCell>
        <mxCell id="wtLvhD4wT0ucbI8I0_Iq-9" style="rounded=0;orthogonalLoop=1;jettySize=auto;html=1;exitX=0.25;exitY=0.1;exitDx=0;exitDy=0;exitPerimeter=0;" edge="1" parent="1" target="wtLvhD4wT0ucbI8I0_Iq-10" source="t9oWjJF-gBKutY8o14O9-3">
          <mxGeometry relative="1" as="geometry">
            <mxPoint x="930.9921095231184" y="606.0858878783481" as="targetPoint" />
            <mxPoint x="1265" y="636" as="sourcePoint" />
          </mxGeometry>
        </mxCell>
        <mxCell id="wtLvhD4wT0ucbI8I0_Iq-10" value="Работа с кафедрами ВлГУ" style="ellipse;whiteSpace=wrap;html=1;" vertex="1" parent="1">
          <mxGeometry x="964" y="460" width="166" height="60" as="geometry" />
        </mxCell>
        <mxCell id="wtLvhD4wT0ucbI8I0_Iq-11" value="Удалить информацию&amp;nbsp;о кафедрах&amp;nbsp;ВлГУ" style="ellipse;whiteSpace=wrap;html=1;" vertex="1" parent="1">
          <mxGeometry x="630" y="400" width="170" height="70" as="geometry" />
        </mxCell>
        <mxCell id="wtLvhD4wT0ucbI8I0_Iq-12" value="Редактировать информацию о кафедрах&amp;nbsp;ВлГУ" style="ellipse;whiteSpace=wrap;html=1;" vertex="1" parent="1">
          <mxGeometry x="670" y="500" width="190" height="70" as="geometry" />
        </mxCell>
        <mxCell id="wtLvhD4wT0ucbI8I0_Iq-13" value="Добавить информацию&amp;nbsp;о кафедрах ВлГУ" style="ellipse;whiteSpace=wrap;html=1;" vertex="1" parent="1">
          <mxGeometry x="800" y="340" width="190" height="70" as="geometry" />
        </mxCell>
        <mxCell id="wtLvhD4wT0ucbI8I0_Iq-14" value="include" style="endArrow=none;endSize=12;dashed=1;html=1;rounded=0;startArrow=open;startFill=0;endFill=0;" edge="1" parent="1" source="wtLvhD4wT0ucbI8I0_Iq-12" target="wtLvhD4wT0ucbI8I0_Iq-10">
          <mxGeometry x="-0.0096" width="160" relative="1" as="geometry">
            <mxPoint x="903" y="551" as="sourcePoint" />
            <mxPoint x="999" y="533" as="targetPoint" />
            <mxPoint as="offset" />
          </mxGeometry>
        </mxCell>
        <mxCell id="wtLvhD4wT0ucbI8I0_Iq-15" value="include" style="endArrow=none;endSize=12;dashed=1;html=1;rounded=0;startArrow=open;startFill=0;endFill=0;" edge="1" parent="1" source="wtLvhD4wT0ucbI8I0_Iq-11" target="wtLvhD4wT0ucbI8I0_Iq-10">
          <mxGeometry x="-0.0096" width="160" relative="1" as="geometry">
            <mxPoint x="912" y="476" as="sourcePoint" />
            <mxPoint x="1007" y="502" as="targetPoint" />
            <mxPoint as="offset" />
          </mxGeometry>
        </mxCell>
        <mxCell id="wtLvhD4wT0ucbI8I0_Iq-16" value="include" style="endArrow=none;endSize=12;dashed=1;html=1;rounded=0;startArrow=open;startFill=0;endFill=0;" edge="1" parent="1" source="wtLvhD4wT0ucbI8I0_Iq-13" target="wtLvhD4wT0ucbI8I0_Iq-10">
          <mxGeometry x="-0.0096" width="160" relative="1" as="geometry">
            <mxPoint x="915" y="386" as="sourcePoint" />
            <mxPoint x="1040" y="492" as="targetPoint" />
            <mxPoint as="offset" />
          </mxGeometry>
        </mxCell>
        <mxCell id="wtLvhD4wT0ucbI8I0_Iq-17" style="rounded=0;orthogonalLoop=1;jettySize=auto;html=1;exitX=0.25;exitY=0.1;exitDx=0;exitDy=0;exitPerimeter=0;" edge="1" parent="1" target="wtLvhD4wT0ucbI8I0_Iq-18" source="t9oWjJF-gBKutY8o14O9-3">
          <mxGeometry relative="1" as="geometry">
            <mxPoint x="1130.9921095231184" y="1256.085887878348" as="targetPoint" />
            <mxPoint x="1605" y="1166" as="sourcePoint" />
          </mxGeometry>
        </mxCell>
        <mxCell id="wtLvhD4wT0ucbI8I0_Iq-18" value="Работа с должностями" style="ellipse;whiteSpace=wrap;html=1;" vertex="1" parent="1">
          <mxGeometry x="700" y="1140" width="166" height="60" as="geometry" />
        </mxCell>
        <mxCell id="wtLvhD4wT0ucbI8I0_Iq-19" value="Удалить информацию&amp;nbsp;о должностях" style="ellipse;whiteSpace=wrap;html=1;" vertex="1" parent="1">
          <mxGeometry x="350" y="1116" width="170" height="70" as="geometry" />
        </mxCell>
        <mxCell id="wtLvhD4wT0ucbI8I0_Iq-20" value="Редактировать информацию о должностях" style="ellipse;whiteSpace=wrap;html=1;" vertex="1" parent="1">
          <mxGeometry x="420" y="1190" width="190" height="70" as="geometry" />
        </mxCell>
        <mxCell id="wtLvhD4wT0ucbI8I0_Iq-21" value="Добавить информацию&amp;nbsp;о должностях" style="ellipse;whiteSpace=wrap;html=1;" vertex="1" parent="1">
          <mxGeometry x="450" y="1030" width="190" height="70" as="geometry" />
        </mxCell>
        <mxCell id="wtLvhD4wT0ucbI8I0_Iq-22" value="include" style="endArrow=none;endSize=12;dashed=1;html=1;rounded=0;startArrow=open;startFill=0;endFill=0;" edge="1" parent="1" source="wtLvhD4wT0ucbI8I0_Iq-20" target="wtLvhD4wT0ucbI8I0_Iq-18">
          <mxGeometry x="-0.0096" width="160" relative="1" as="geometry">
            <mxPoint x="1103" y="1201" as="sourcePoint" />
            <mxPoint x="1199" y="1183" as="targetPoint" />
            <mxPoint as="offset" />
          </mxGeometry>
        </mxCell>
        <mxCell id="wtLvhD4wT0ucbI8I0_Iq-23" value="include" style="endArrow=none;endSize=12;dashed=1;html=1;rounded=0;startArrow=open;startFill=0;endFill=0;" edge="1" parent="1" source="wtLvhD4wT0ucbI8I0_Iq-19" target="wtLvhD4wT0ucbI8I0_Iq-18">
          <mxGeometry x="-0.0096" width="160" relative="1" as="geometry">
            <mxPoint x="1112" y="1126" as="sourcePoint" />
            <mxPoint x="1207" y="1152" as="targetPoint" />
            <mxPoint as="offset" />
          </mxGeometry>
        </mxCell>
        <mxCell id="wtLvhD4wT0ucbI8I0_Iq-24" value="include" style="endArrow=none;endSize=12;dashed=1;html=1;rounded=0;startArrow=open;startFill=0;endFill=0;" edge="1" parent="1" source="wtLvhD4wT0ucbI8I0_Iq-21" target="wtLvhD4wT0ucbI8I0_Iq-18">
          <mxGeometry x="-0.0096" width="160" relative="1" as="geometry">
            <mxPoint x="1115" y="1036" as="sourcePoint" />
            <mxPoint x="1240" y="1142" as="targetPoint" />
            <mxPoint as="offset" />
          </mxGeometry>
        </mxCell>
        <mxCell id="wtLvhD4wT0ucbI8I0_Iq-27" style="rounded=0;orthogonalLoop=1;jettySize=auto;html=1;exitX=0.25;exitY=0.1;exitDx=0;exitDy=0;exitPerimeter=0;" edge="1" parent="1" target="wtLvhD4wT0ucbI8I0_Iq-28" source="t9oWjJF-gBKutY8o14O9-3">
          <mxGeometry relative="1" as="geometry">
            <mxPoint x="2058" y="1226" as="sourcePoint" />
          </mxGeometry>
        </mxCell>
        <mxCell id="wtLvhD4wT0ucbI8I0_Iq-28" value="Работа с вахтерами ВлГУ" style="ellipse;whiteSpace=wrap;html=1;" vertex="1" parent="1">
          <mxGeometry x="1190" y="1155" width="160" height="60" as="geometry" />
        </mxCell>
        <mxCell id="wtLvhD4wT0ucbI8I0_Iq-29" value="Редактировать информацию о вахтерах&amp;nbsp;ВлГУ" style="ellipse;whiteSpace=wrap;html=1;" vertex="1" parent="1">
          <mxGeometry x="950" y="1230" width="190" height="65" as="geometry" />
        </mxCell>
        <mxCell id="wtLvhD4wT0ucbI8I0_Iq-30" value="Добавить информацию&amp;nbsp;о вахтерах ВлГУ" style="ellipse;whiteSpace=wrap;html=1;" vertex="1" parent="1">
          <mxGeometry x="950" y="1080" width="190" height="55" as="geometry" />
        </mxCell>
        <mxCell id="wtLvhD4wT0ucbI8I0_Iq-31" value="include" style="endArrow=open;endSize=12;dashed=1;html=1;rounded=0;" edge="1" parent="1" source="wtLvhD4wT0ucbI8I0_Iq-28" target="wtLvhD4wT0ucbI8I0_Iq-30">
          <mxGeometry x="-0.0096" width="160" relative="1" as="geometry">
            <mxPoint x="1508" y="1023" as="sourcePoint" />
            <mxPoint x="1113" y="965" as="targetPoint" />
            <mxPoint as="offset" />
          </mxGeometry>
        </mxCell>
        <mxCell id="wtLvhD4wT0ucbI8I0_Iq-32" value="include" style="endArrow=open;endSize=12;dashed=1;html=1;rounded=0;" edge="1" parent="1" source="wtLvhD4wT0ucbI8I0_Iq-28" target="wtLvhD4wT0ucbI8I0_Iq-29">
          <mxGeometry x="-0.0096" width="160" relative="1" as="geometry">
            <mxPoint x="1483" y="1062" as="sourcePoint" />
            <mxPoint x="1209" y="853" as="targetPoint" />
            <mxPoint as="offset" />
          </mxGeometry>
        </mxCell>
        <mxCell id="wtLvhD4wT0ucbI8I0_Iq-33" value="Удалить информацию&amp;nbsp;о вахтерах&amp;nbsp;ВлГУ" style="ellipse;whiteSpace=wrap;html=1;" vertex="1" parent="1">
          <mxGeometry x="910" y="1160" width="190" height="50" as="geometry" />
        </mxCell>
        <mxCell id="wtLvhD4wT0ucbI8I0_Iq-34" value="include" style="endArrow=open;endSize=12;dashed=1;html=1;rounded=0;" edge="1" parent="1" source="wtLvhD4wT0ucbI8I0_Iq-28" target="wtLvhD4wT0ucbI8I0_Iq-33">
          <mxGeometry x="-0.0096" width="160" relative="1" as="geometry">
            <mxPoint x="1464" y="1040" as="sourcePoint" />
            <mxPoint x="1209" y="853" as="targetPoint" />
            <mxPoint as="offset" />
          </mxGeometry>
        </mxCell>
      </root>
    </mxGraphModel>
  </diagram>
</mxfile>
